<?xml version="1.0" encoding="UTF-8" standalone="no"?>
<svg
   xmlns:dc="http://purl.org/dc/elements/1.1/"
   xmlns:cc="http://creativecommons.org/ns#"
   xmlns:rdf="http://www.w3.org/1999/02/22-rdf-syntax-ns#"
   xmlns:svg="http://www.w3.org/2000/svg"
   xmlns="http://www.w3.org/2000/svg"
   xmlns:sodipodi="http://sodipodi.sourceforge.net/DTD/sodipodi-0.dtd"
   xmlns:inkscape="http://www.inkscape.org/namespaces/inkscape"
   version="1.0"
   width="1500.000000pt"
   height="1000.000000pt"
   viewBox="0 0 1500.000000 1000.000000"
   preserveAspectRatio="xMidYMid meet"
   id="svg2"
   inkscape:version="0.91 r13725"
   sodipodi:docname="logo.svg">
  <defs
     id="defs32" />
  <sodipodi:namedview
     pagecolor="#ffffff"
     bordercolor="#666666"
     borderopacity="1"
     objecttolerance="10"
     gridtolerance="10"
     guidetolerance="10"
     inkscape:pageopacity="0"
     inkscape:pageshadow="2"
     inkscape:window-width="1243"
     inkscape:window-height="766"
     id="namedview30"
     showgrid="false"
     inkscape:zoom="0.37333333"
     inkscape:cx="685.36628"
     inkscape:cy="765.154"
     inkscape:window-x="0"
     inkscape:window-y="0"
     inkscape:window-maximized="0"
     inkscape:current-layer="svg2" />
  <metadata
     id="metadata4">
Created by potrace 1.13, written by Peter Selinger 2001-2015
<rdf:RDF>
  <cc:Work
     rdf:about="">
    <dc:format>image/svg+xml</dc:format>
    <dc:type
       rdf:resource="http://purl.org/dc/dcmitype/StillImage" />
  </cc:Work>
</rdf:RDF>
</metadata>
  <g
     transform="translate(0.000000,1000.000000) scale(0.100000,-0.100000)"
     id="g6"
     stroke="none"
     fill="#000000">
    <path
       d="M0 5000 l0 -5000 7500 0 7500 0 0 5000 0 5000 -7500 0 -7500 0 0 -5000z m4940 3985 c280 -14 480 -31 634 -55 34 -5 90 -12 126 -15 79 -7 364 -58 515 -92 61 -14 137 -31 171 -38 71 -16 198 -53 344 -102 406 -136 679 -314 775 -505 l35 -71 0 -758 0 -758 403 -3 402 -3 56 -26 c79 -37 133 -90 171 -167 l33 -67 3 -487 c1 -269 6 -488 11 -488 5 0 67 58 139 129 110 110 147 154 235 288 221 336 335 436 542 478 71 14 194 15 1085 13 l1005 -3 41 -23 c70 -41 101 -118 82 -207 -13 -64 -62 -171 -142 -310 -35 -60 -93 -162 -130 -226 -36 -63 -66 -121 -66 -127 0 -9 57 -12 213 -12 281 0 397 -19 492 -80 50 -32 74 -79 81 -161 5 -58 3 -71 -30 -141 -28 -62 -368 -519 -1722 -2315 -927 -1231 -1700 -2251 -1717 -2266 -18 -16 -51 -46 -74 -67 -24 -22 -62 -50 -86 -65 l-44 -25 -3994 2 -3994 3 -65 32 c-79 39 -139 99 -171 173 l-24 55 0 2915 0 2915 33 67 c38 77 92 130 171 167 l56 26 388 3 388 3 -1 757 c-1 566 2 766 11 792 34 97 138 213 276 306 94 63 369 198 446 218 29 8 70 21 92 30 120 47 489 137 765 185 164 29 235 39 565 78 337 39 983 52 1475 28z"
       id="path8"
       style="fill:#2969b0;fill-opacity:1;stroke:none" />
    <path
       d="M3942 8950 c-205 -11 -405 -28 -544 -45 -731 -91 -1277 -248 -1600 -461 -92 -60 -194 -163 -233 -234 -27 -50 -30 -64 -30 -145 0 -78 4 -97 27 -140 159 -303 794 -558 1691 -679 180 -25 419 -48 672 -65 130 -9 988 -7 1035 2 14 3 72 8 130 12 619 38 1268 171 1670 342 260 111 445 249 516 383 26 49 29 65 29 145 0 81 -3 95 -30 144 -197 358 -1044 642 -2165 726 -41 3 -97 8 -125 10 -97 9 -902 13 -1043 5z"
       id="path10"
       style="fill:#2969b0;fill-opacity:1" />
    <path
       d="M1542 7028 l3 -643 28 -53 c75 -143 292 -295 577 -405 131 -51 284 -102 350 -117 25 -5 79 -19 120 -30 195 -53 667 -132 896 -150 71 -6 174 -15 229 -20 252 -24 683 -34 978 -22 897 36 1568 157 2064 372 243 106 414 234 484 362 l34 63 3 643 c2 520 0 642 -10 636 -7 -4 -38 -24 -68 -44 -203 -137 -659 -302 -1030 -374 -41 -8 -108 -22 -149 -31 -41 -9 -104 -20 -140 -25 -36 -5 -142 -20 -236 -34 -93 -13 -204 -27 -245 -31 -41 -3 -147 -12 -235 -20 -88 -8 -296 -20 -462 -26 -327 -14 -724 -4 -1058 26 -93 9 -219 19 -280 24 -220 19 -685 101 -945 167 -349 90 -636 203 -833 330 -37 24 -70 44 -73 44 -2 0 -3 -289 -2 -642z"
       id="path12"
       style="fill:#2969b0;fill-opacity:1" />
    <path
       d="M546 6367 c-22 -12 -48 -38 -58 -58 -17 -34 -18 -134 -16 -2869 l3 -2833 473 627 473 627 -29 37 c-41 54 -57 82 -71 123 -9 27 -12 261 -12 910 0 862 0 875 21 921 11 26 39 70 61 98 36 45 39 54 27 69 -61 84 -81 116 -94 153 -23 65 -22 1752 1 1817 18 52 48 103 88 148 16 18 24 33 19 33 -18 0 -92 113 -109 168 l-17 52 -360 0 c-355 0 -362 -1 -400 -23z"
       id="path14"
       style="fill:#2b82c9;fill-opacity:1" />
    <path
       d="M7540 6372 c0 -31 -66 -155 -99 -186 l-30 -29 35 -40 c20 -22 50 -69 67 -105 l30 -65 -2 -303 -2 -304 435 0 436 0 0 466 c0 515 0 511 -64 557 -31 22 -36 22 -418 25 -375 3 -388 2 -388 -16z"
       id="path16"
       style="fill:#2b82c9;fill-opacity:1" />
    <path
       d="M9550 6044 c-30 -8 -73 -26 -96 -39 -62 -36 -157 -145 -264 -301 -168 -246 -308 -406 -454 -518 l-59 -46 -2237 0 -2236 0 -60 -39 c-54 -36 -112 -98 -167 -179 -12 -18 -777 -1033 -1699 -2257 -923 -1223 -1678 -2227 -1678 -2230 0 -3 1772 -5 3938 -5 l3939 0 39 29 c21 15 49 39 60 52 52 58 3361 4457 3372 4482 15 35 15 59 0 92 -25 54 -48 59 -354 66 -319 7 -339 11 -382 85 -48 82 -4 204 190 530 81 135 119 231 105 267 -3 9 -27 16 -68 20 -34 4 -461 7 -948 6 -747 0 -895 -3 -941 -15z m-2960 -2578 c142 -4 190 -37 190 -128 0 -61 -24 -111 -104 -219 -73 -99 -133 -149 -214 -180 -52 -19 -72 -21 -228 -17 -154 4 -174 6 -206 26 -68 42 -74 117 -19 224 l30 58 -84 0 -84 0 -43 -57 c-46 -64 -218 -293 -289 -388 -25 -33 -132 -175 -236 -316 -216 -289 -279 -354 -405 -416 -137 -68 -169 -74 -384 -71 l-189 3 -12 26 c-10 20 -10 34 -1 60 11 33 114 181 242 349 36 47 109 146 163 220 53 74 129 176 168 225 39 50 87 113 106 140 134 195 208 276 320 351 92 61 172 96 249 110 59 10 743 10 1030 0z m1760 -25 c34 -20 48 -35 60 -66 28 -73 2 -136 -137 -325 -116 -159 -165 -210 -239 -246 -59 -29 -59 -29 -250 -29 -187 0 -191 0 -227 25 -36 25 -57 63 -57 104 0 33 62 153 119 231 28 38 51 73 51 77 0 5 -36 8 -79 8 l-80 0 -93 -127 c-51 -70 -144 -194 -207 -277 -62 -83 -128 -171 -145 -195 -49 -69 -216 -292 -269 -359 -26 -33 -44 -63 -40 -65 5 -2 42 -5 83 -6 l76 -2 68 92 c101 134 168 198 276 261 146 86 197 98 411 98 166 0 180 -1 199 -20 42 -42 30 -70 -119 -268 -143 -190 -214 -257 -335 -318 -159 -80 -130 -77 -745 -72 -472 4 -551 7 -583 20 -73 32 -92 107 -50 200 11 27 68 110 125 185 97 130 238 319 509 683 129 173 186 233 288 301 66 45 174 92 230 102 14 3 275 4 580 3 457 -1 559 -3 580 -15z"
       id="path18"
       style="fill:#2b82c9;fill-opacity:1" />
    <path
       d="M1558 6023 c-7 -16 -13 -66 -13 -113 0 -70 4 -93 24 -130 97 -186 371 -355 795 -490 346 -110 910 -211 1334 -237 105 -7 123 -6 127 7 20 61 128 174 216 225 99 57 23 54 1374 54 l1240 1 140 63 c320 143 497 308 512 479 6 63 -12 147 -34 155 -7 3 -34 -9 -60 -25 -113 -72 -307 -158 -518 -230 -158 -54 -550 -153 -655 -166 -19 -3 -102 -16 -185 -30 -82 -14 -193 -30 -245 -36 -52 -5 -153 -16 -225 -25 -71 -8 -193 -20 -270 -26 -184 -16 -1195 -16 -1365 0 -277 25 -603 63 -735 86 -77 13 -158 26 -180 30 -22 3 -111 21 -199 41 -421 94 -737 205 -961 339 -51 30 -95 55 -99 55 -3 0 -12 -12 -18 -27z"
       id="path20"
       style="fill:#2969b0;fill-opacity:1" />
    <path
       d="M1540 4890 c0 -590 1 -633 19 -679 82 -217 426 -418 966 -564 211 -57 195 -58 252 15 143 182 955 1269 951 1273 -4 4 -260 33 -448 51 -105 9 -436 66 -620 105 -451 96 -811 227 -1044 379 l-76 50 0 -630z"
       id="path22"
       style="fill:#2969b0;fill-opacity:1" />
    <path
       d="M7245 5471 c-33 -21 -100 -59 -148 -85 l-88 -46 151 0 150 0 0 85 c0 47 -1 85 -2 85 -2 0 -30 -18 -63 -39z"
       id="path24"
       style="fill:#2969b0;fill-opacity:1" />
    <path
       d="M1554 3853 c-25 -60 -15 -175 22 -243 61 -114 216 -238 414 -333 91 -43 306 -127 361 -140 25 -6 35 5 158 168 72 96 131 178 131 183 0 5 -35 16 -77 26 -354 80 -728 219 -921 342 -29 19 -57 34 -62 34 -5 0 -17 -17 -26 -37z"
       id="path26"
       style="fill:#2969b0;fill-opacity:1" />
    <path
       d="M1542 2716 c2 -413 7 -648 13 -655 7 -6 133 154 370 469 197 263 360 482 362 486 1 5 -53 27 -120 48 -219 71 -423 162 -544 244 -32 21 -64 42 -71 46 -10 6 -12 -116 -10 -638z"
       id="path28"
       style="fill:#2969b0;fill-opacity:1" />
  </g>
</svg>
